<svg clip-rule="evenodd" fill-rule="evenodd" height="2048" image-rendering="optimizeQuality" shape-rendering="geometricPrecision" text-rendering="geometricPrecision" viewBox="0 0 2048 2048" width="2048" xmlns="http://www.w3.org/2000/svg"><g id="Layer_x0020_1"><g fill="#424242"><path d="m550 1501h-112v8c0 70-1 163-1 233 0 15 6 28 17 39 11 10 25 16 40 16s29-6 40-16c10-10 17-24 17-39v-241z"/><path d="m1176 321c34-34 82-56 134-56s100 21 134 56c34 34 56 82 56 134s-21 100-56 134c-34 34-82 56-134 56s-100-21-134-56c-34-34-56-82-56-134s21-100 56-134z" fill-rule="nonzero"/><path d="m481 732c27-27 65-44 106-44s79 17 106 44 44 65 44 106-17 79-44 106-65 44-106 44-79-17-106-44-44-65-44-106 17-79 44-106z" fill-rule="nonzero"/><path d="m869 1135c15 13 33 19 53 19 22 0 44-9 59-24l116-110v76c0 67 0 135-1 202 0 137-1 274-1 411 0 21 9 42 24 57s35 24 57 24c21 0 42-9 57-24s24-35 24-57v-350h108v350c0 21 9 42 24 57s35 24 57 24c21 0 42-9 57-24s24-35 24-57c0-137-1-274-1-411 0-67 0-135-1-202v-76l116 110c16 15 38 24 59 24 20 0 38-6 53-19l4-4c1-1 2-2 2-2 14-15 22-35 23-55 0-20-7-40-21-55-1-1-2-2-3-3l-305-287c-38-36-91-52-142-52s-105 17-142 52l-305 287c-1 1-2 2-3 3-14 15-21 35-21 55 0 21 9 40 23 55 1 1 2 2 2 2z"/><path d="m737 1501h-112v241c0 15 6 28 17 39 11 10 25 16 40 16s29-6 40-16c10-10 17-24 17-39 0-70 0-163-1-233v-8z"/><path d="m372 1554h434c0-41-21-126-35-164-2-5-3-9-5-14l-45-123 99 85c11 9 25 15 39 15s26-4 37-13l3-3 2-2c10-10 15-24 16-39 0-14-5-28-15-38-1-1-1-1-2-2l-213-201c-26-25-64-36-99-36-36 0-73 12-99 36l-213 201c-1 1-1 1-2 2-10 10-15 24-15 38s6 28 16 39l2 2 3 3c10 9 23 13 37 13s29-6 40-15l103-89-49 127c-2 4-3 9-5 13-16 40-33 122-33 165z"/></g><path d="m0 0h2048v2048h-2048z" fill="none"/></g></svg>