<svg id="Layer_1" enable-background="new 0 0 100 100" viewBox="0 0 100 100" xmlns="http://www.w3.org/2000/svg"><path d="m11.3851643 23.4587021h-5.7502008c-.9122176 0-1.6289668.7329559-1.6289668 1.6289673v43.0860901c0 .9122162.7167492 1.6289673 1.6289668 1.6289673h5.7502007c.8959112 0 1.6289663-.7167511 1.6289663-1.6289673v-10.865181h21.0026932v2.0525131c0 .8959122.7330551 1.6289673 1.6289673 1.6289673h22.1865196c.8959122 0 1.6289673-.7330551 1.6289673-1.6289673v-2.0525131h15.1933022v5.5222206c0 .8959122.7330551 1.6289711 1.6289673 1.6289711h18.0814886c.9122162 0 1.6289673-.7330589 1.6289673-1.6289711v-9.3502502c0-9.6597633-7.8516312-17.5113945-17.5113907-17.5113945h-19.0213356v-2.0525131c0-.8959122-.7330551-1.6289673-1.6289673-1.6289673h-5.5547333v-18.1715966c.7492599.1628571 1.5312309.4723644 2.231678.9936457 1.2217216.9610338 2.7040405 1.4498034 4.2515793 1.4498034 2.085125 0 4.0561104-.9122162 5.3918762-2.5086718 1.335762-1.5963554 1.9058609-3.7139921 1.5312271-5.7828121-.2442856-1.400887-.9610291-2.6877351-1.9384727-3.6814804-.9936447-1.0099514-2.264286-1.7103951-3.6651726-1.9709859-1.9221687-.342119-3.8280334.0814283-5.3918762 1.1891139-1.2217255.8959119-2.4434509 1.3357646-3.6000519 1.3357646h-8.6986275c-1.156601 0-2.3620224-.4398527-3.6000519-1.3357646-1.5475388-1.1076856-3.4697075-1.5312328-5.3755684-1.1891139-2.801775.5212812-5.1149807 2.8343863-5.6199551 5.6524663-.358326 2.06882.195467 4.1864567 1.5312328 5.7828121 1.3520699 1.5964556 3.3068504 2.5086718 5.3918762 2.5086718 1.5638428 0 3.029953-.4887695 4.2678833-1.4498034.6842384-.5375872 1.4824142-.8307886 2.231678-.9936457v18.1715966h-5.5710411c-.8959122 0-1.6289673.7330551-1.6289673 1.6289673v2.0525131h-21.002692v-10.881485c0-.8960114-.7330551-1.6289673-1.6289663-1.6289673z"/><path d="m83.0908356 70.8478088c-1.2164612 2.1896667-7.2324982 13.2928162-7.2324982 17.4953003 0 5.0429688 4.1139145 9.1568909 9.1568909 9.1568909 5.0649796 0 9.1567612-4.1139221 9.1567612-9.1568909 0-4.2024841-6.016037-15.3056335-7.2105026-17.4953003-.7740708-1.3934478-3.0964356-1.3934478-3.8706513 0z"/></svg>