<svg id="Capa_1" enable-background="new 0 0 512 512" height="512" viewBox="0 0 512 512" width="512" xmlns="http://www.w3.org/2000/svg"><g><path d="m497 361h-482c-8.284 0-15 6.716-15 15 0 27.614 22.386 50 50 50h412c27.614 0 50-22.386 50-50 0-8.284-6.716-15-15-15z"/><path d="m100 496h312c22.091 0 40-17.909 40-40h-392c0 22.091 17.909 40 40 40z"/><path d="m338.858 133.727 82.104-22c4.288 16.004 20.738 25.501 36.742 21.213s25.501-20.738 21.213-36.742c-3.381-12.617-14.761-22.839-27.082-23.802h-.001c10.189-6.994 14.934-21.537 11.553-34.154-4.287-16.003-20.737-25.501-36.741-21.212-16.004 4.288-25.501 20.738-21.213 36.742l-82.104 22z"/><path d="m103.716 199.067c20.405-14.49 44.744-22.568 69.902-23.047 7.575-9.571 16.807-17.811 27.318-24.312 16.621-10.278 35.662-15.711 55.064-15.711 17.386 0 34.477 4.375 49.801 12.677 1.537-2.445 2.908-4.846 4.08-7.181l-15.529-57.957c-32.183-21.18-107.568-33.293-141.1-24.308-48.012 12.864-76.504 62.215-63.639 110.227 2.941 10.98 7.796 20.935 14.103 29.612z"/><path d="m430.017 287.313c-6.653-45.923-46.279-81.313-94.017-81.313-4.409 0-8.827.316-13.225.944-12.636-24.655-38.411-40.944-66.775-40.944s-54.139 16.289-66.775 40.944c-4.398-.628-8.816-.944-13.225-.944-47.738 0-87.364 35.39-94.017 81.313-24.568 4.662-44.917 21.354-54.704 43.687h457.442c-9.787-22.333-30.136-39.025-54.704-43.687zm-234.017 13.687c-8.284 0-15-6.716-15-15s6.716-15 15-15 15 6.716 15 15-6.716 15-15 15zm60-45c-8.284 0-15-6.716-15-15s6.716-15 15-15 15 6.716 15 15-6.716 15-15 15zm60 45c-8.284 0-15-6.716-15-15s6.716-15 15-15 15 6.716 15 15-6.716 15-15 15z"/></g></svg>