<svg id="Layer_1" viewBox="0 0 512 512" xmlns="http://www.w3.org/2000/svg" data-name="Layer 1"><path d="m180.93 261.212c3.967-3.003 8.363-5.515 13.158-7.415.496-.197.992-.383 1.488-.563l-83.519-83.519c7.498-6.823 17.423-10.754 27.698-10.754 12.405 0 24.34 5.772 32.067 15.467l37.851 75.702c6.449-.509 12.748.219 18.787 1.949l-40.434-80.868c7.649-7.741 18.246-12.25 29.209-12.25 11.748 0 23.036 5.138 30.764 13.861v88.778c2.779 1.948 5.451 4.096 8 6.413 2.549-2.317 5.221-4.465 8-6.413v-88.777c7.733-8.723 19.061-13.862 30.764-13.862 10.953 0 21.541 4.501 29.22 12.229l-40.444 80.889c6.039-1.73 12.338-2.457 18.787-1.949l37.851-75.702c7.727-9.695 19.663-15.467 32.115-15.467 10.237 0 20.154 3.931 27.651 10.754l-83.519 83.519c.496.181.991.366 1.488.563 4.795 1.9 9.191 4.411 13.158 7.415l85.604-85.605c1.464-1.468 2.338-3.485 2.338-5.656 0-89.889-73.141-163.021-163.012-163.021s-163.012 73.131-163.012 163.02c0 2.17.874 4.187 2.338 5.656zm-42.313-166.314c9.753-14.438 21.442-26.527 34.81-36.321 13.634-9.988 28.989-17.551 45.795-22.75 4.211-1.294 8.674 1.07 9.969 5.281 1.294 4.211-1.07 8.674-5.281 9.969-15.085 4.667-28.849 11.441-41.044 20.375-11.868 8.695-22.277 19.473-30.998 32.383-2.468 3.659-7.435 4.624-11.094 2.156s-4.624-7.435-2.156-11.094zm117.383 320.559c-64.975-37.687-89.135-75.574-85.679-107.739 4.411-41.043 51.051-64.144 85.679-19.074 34.627-45.07 81.268-21.969 85.678 19.074 3.457 32.165-20.703 70.052-85.678 107.739zm245.105-167.758c-.609 5.599-3.831 17.272-7.166 26.999l-45.401 121.156c-8.579 22.595-20.607 31.111-29.511 40.295-19.166 19.768-33.775 26.401-38.175 68.92h-84.874c-1.948-38.599-3.423-85.761 28.086-113.172 21.888-17.727 41.142-33.855 61-53.345 12.472-12.241 22.814-13.091 30.291-6.643 2.685 2.316 4.48 4.869 5.528 7.598 1.593 9.925-6.836 22.892-17.16 34.862-9.074 10.521-19.834 20.388-27.51 27.428-2.37 2.173-4.442 4.074-6.35 5.902-2.88 2.77-2.969 7.351-.198 10.23s7.351 2.968 10.23.198c1.451-1.39 3.631-3.39 6.123-5.675 7.889-7.234 18.948-17.376 28.643-28.618 17.011-19.723 29.259-42.302 15.003-59.498 8.423-15.14 18.895-36.087 26.963-54.609 17.141-39.35 37.769-38.225 44.477-22.029zm-285.084 257.371h-84.874c-4.4-42.52-19.009-49.153-38.175-68.921-8.904-9.184-20.932-17.701-29.511-40.295l-45.4-121.156c-3.334-9.728-6.556-21.401-7.166-26.999 6.709-16.196 27.336-17.321 44.477 22.029 8.068 18.521 18.54 39.469 26.963 54.609-14.256 17.195-2.008 39.774 15.003 59.498 9.696 11.242 20.754 21.384 28.643 28.618 2.492 2.285 4.672 4.285 6.123 5.675 2.88 2.77 7.46 2.681 10.23-.198s2.681-7.46-.198-10.23c-1.907-1.828-3.979-3.728-6.35-5.902-7.676-7.039-18.436-16.907-27.51-27.428-10.323-11.97-18.753-24.937-17.159-34.862 1.048-2.729 2.843-5.282 5.528-7.598 7.477-6.448 17.819-5.598 30.291 6.643 19.858 19.49 39.112 35.618 61 53.345 31.508 27.411 30.034 74.574 28.086 113.173z" fill-rule="evenodd"/></svg>